<svg width="1523" height="830" viewBox="0 0 1523 830" fill="none" xmlns="http://www.w3.org/2000/svg">
<path fill-rule="evenodd" clip-rule="evenodd" d="M181.635 262.881V237.666H239.59V236.666H181.635V213.018H281.171V212.018H181.635V186.799H323.817V185.799H181.635V163.887H355.801V162.887H181.635V137.668H387.785V136.668H181.635V70.3418H180.635V136.668H160.31V122.777H159.31V136.668H140.267V121.471H139.267V136.668H118.945V82.1396H117.945V136.668H100.306V121.466H99.3058V136.668H78.9844V95.2482H77.9844V136.668H21.0327V137.668H77.9844V162.887H42.3558V163.887H77.9844V185.799H10.3718V186.799H77.9844V212.018H42.3595V213.018H77.9844V236.666H43.4201V237.666H77.9844V262.881H0.777344V263.881H77.9844V546.189H78.9844V263.881H99.3058V506.863H100.306V263.881H117.945V467.537H118.945V263.881H139.267V415.101H140.267V263.881H159.31V363.978H160.31V263.881H180.635V311.543H181.635V263.881H196.947V262.881H181.635ZM180.635 262.881V237.666H160.31V262.881H180.635ZM159.31 262.881V237.666H140.267V262.881H159.31ZM139.267 262.881V237.666H118.945V262.881H139.267ZM117.945 262.881V237.666H100.306V262.881H117.945ZM99.3058 262.881V237.666H78.9844V262.881H99.3058ZM180.635 213.018V236.666H160.31V213.018H180.635ZM159.31 213.018V236.666H140.267V213.018H159.31ZM139.267 213.018V236.666H118.945V213.018H139.267ZM117.945 213.018V236.666H100.306V213.018H117.945ZM99.3058 213.018V236.666H78.9844V213.018H99.3058ZM78.9844 137.668V162.887H99.3058V137.668H78.9844ZM100.306 137.668V162.887H117.945V137.668H100.306ZM118.945 137.668V162.887H139.267V137.668H118.945ZM140.267 137.668V162.887H159.31V137.668H140.267ZM160.31 137.668V162.887H180.635V137.668H160.31ZM160.31 163.887H180.635V185.799H160.31V163.887ZM140.267 163.887H159.31V185.799H140.267V163.887ZM118.945 163.887H139.267V185.799H118.945V163.887ZM100.306 163.887H117.945V185.799H100.306V163.887ZM78.9844 163.887H99.3058V185.799H78.9844V163.887ZM78.9844 186.799V212.018H99.3058V186.799H78.9844ZM100.306 186.799V212.018H117.945V186.799H100.306ZM118.945 186.799V212.018H139.267V186.799H118.945ZM140.267 186.799V212.018H159.31V186.799H140.267ZM160.31 186.799V212.018H180.635V186.799H160.31Z" fill="url(#paint0_linear_1291_426)"/>
<path fill-rule="evenodd" clip-rule="evenodd" d="M1372.93 262.881V237.666H1283.97V236.666H1372.93V213.017H1242.39V212.017H1372.93V186.799H1199.75V185.799H1372.93V163.886H1167.76V162.886H1372.93V137.668H1135.78V136.668H1372.93V0.341797H1373.93V136.668H1394.25V91.6709H1395.25V136.668H1414.3V89.3952H1415.3V136.668H1435.62V20.8907H1436.62V136.668H1454.26V89.3865H1455.26V136.668H1475.58V43.7223H1476.58V136.668H1502.53V137.668H1476.58V162.886H1481.21V163.886H1476.58V185.799H1513.19V186.799H1476.58V212.017H1481.2V213.017H1476.58V236.666H1480.14V237.666H1476.58V262.881H1522.79V263.881H1476.58V829.144H1475.58V263.881H1455.26V760.648H1454.26V263.881H1436.62V692.153H1435.62V263.881H1415.3V600.823H1414.3V263.881H1395.25V511.78H1394.25V263.881H1373.93V420.451H1372.93V263.881H1326.62V262.881H1372.93ZM1373.93 262.881V237.666H1394.25V262.881H1373.93ZM1395.25 262.881V237.666H1414.3V262.881H1395.25ZM1415.3 262.881V237.666H1435.62V262.881H1415.3ZM1436.62 262.881V237.666H1454.26V262.881H1436.62ZM1455.26 262.881V237.666H1475.58V262.881H1455.26ZM1373.93 213.017V236.666H1394.25V213.017H1373.93ZM1395.25 213.017V236.666H1414.3V213.017H1395.25ZM1415.3 213.017V236.666H1435.62V213.017H1415.3ZM1436.62 213.017V236.666H1454.26V213.017H1436.62ZM1455.26 213.017V236.666H1475.58V213.017H1455.26ZM1475.58 137.668V162.886H1455.26V137.668H1475.58ZM1454.26 137.668V162.886H1436.62V137.668H1454.26ZM1435.62 137.668V162.886H1415.3V137.668H1435.62ZM1414.3 137.668V162.886H1395.25V137.668H1414.3ZM1394.25 137.668V162.886H1373.93V137.668H1394.25ZM1394.25 163.886H1373.93V185.799H1394.25V163.886ZM1414.3 163.886H1395.25V185.799H1414.3V163.886ZM1435.62 163.886H1415.3V185.799H1435.62V163.886ZM1454.26 163.886H1436.62V185.799H1454.26V163.886ZM1475.58 163.886H1455.26V185.799H1475.58V163.886ZM1475.58 186.799V212.017H1455.26V186.799H1475.58ZM1454.26 186.799V212.017H1436.62V186.799H1454.26ZM1435.62 186.799V212.017H1415.3V186.799H1435.62ZM1414.3 186.799V212.017H1395.25V186.799H1414.3ZM1394.25 186.799V212.017H1373.93V186.799H1394.25Z" fill="url(#paint1_linear_1291_426)"/>
<defs>
<linearGradient id="paint0_linear_1291_426" x1="170.221" y1="585.348" x2="121.397" y2="109.318" gradientUnits="userSpaceOnUse">
<stop stop-color="#C90003"/>
<stop offset="1" stop-color="#630002"/>
</linearGradient>
<linearGradient id="paint1_linear_1291_426" x1="1353.48" y1="582.136" x2="1410.79" y2="135.533" gradientUnits="userSpaceOnUse">
<stop stop-color="#C90003"/>
<stop offset="1" stop-color="#630002"/>
</linearGradient>
</defs>
</svg>
